<svg xmlns="http://www.w3.org/2000/svg" viewBox="0 0 48 48"><g><circle cx="24" cy="24" r="20" fill="#f34f29"/><path d="M34.6 22.6l-9.2-9.2c-.8-.8-2-.8-2.8 0l-2.2 2.2 3.2 3.2c.7-.2 1.5 0 2 .5.6.6.7 1.5.5 2.2l3.1 3.1c.7-.2 1.5 0 2 .5.8.8.8 2 0 2.8-.8.8-2 .8-2.8 0-.5-.5-.7-1.2-.5-2l-3.1-3.1c-.7.2-1.5 0-2-.5-.8-.8-.8-2 0-2.8.8-.8 2-.8 2.8 0 .5.5.7 1.2.5 2l3.1 3.1c.7-.2 1.5 0 2 .5.8.8.8 2 0 2.8-.8.8-2 .8-2.8 0-.5-.5-.7-1.2-.5-2l-3.1-3.1c-.7.2-1.5 0-2-.5-.8-.8-.8-2 0-2.8.8-.8 2-.8 2.8 0z" fill="#fff"/></g></svg>